<mxfile host="app.diagrams.net" modified="2021-10-26T11:34:35.136Z" agent="5.0 (Windows NT 10.0; Win64; x64) AppleWebKit/537.36 (KHTML, like Gecko) Chrome/94.0.4606.81 Safari/537.36" etag="9exylAIZC7dEnxn3SYuW" version="15.5.9" type="github">
  <diagram id="C5RBs43oDa-KdzZeNtuy" name="Page-1">
    <mxGraphModel dx="780" dy="2273" grid="1" gridSize="10" guides="1" tooltips="1" connect="1" arrows="1" fold="1" page="1" pageScale="1" pageWidth="827" pageHeight="1169" math="0" shadow="0">
      <root>
        <mxCell id="WIyWlLk6GJQsqaUBKTNV-0" />
        <mxCell id="WIyWlLk6GJQsqaUBKTNV-1" parent="WIyWlLk6GJQsqaUBKTNV-0" />
        <mxCell id="WIyWlLk6GJQsqaUBKTNV-2" value="" style="rounded=0;html=1;jettySize=auto;orthogonalLoop=1;fontSize=11;endArrow=block;endFill=0;endSize=8;strokeWidth=1;shadow=0;labelBackgroundColor=none;edgeStyle=orthogonalEdgeStyle;entryX=0.5;entryY=0;entryDx=0;entryDy=0;" parent="WIyWlLk6GJQsqaUBKTNV-1" source="WIyWlLk6GJQsqaUBKTNV-3" target="2dPnj1C3fmJmU-PuBL8V-2" edge="1">
          <mxGeometry relative="1" as="geometry" />
        </mxCell>
        <mxCell id="WIyWlLk6GJQsqaUBKTNV-3" value="初始化fAOD&lt;br&gt;初始化fESD&lt;br&gt;初始化fVevent得到顶点pVtxZ、pVtxX、pVtxY&amp;nbsp;&amp;nbsp;" style="rounded=1;whiteSpace=wrap;html=1;fontSize=12;glass=0;strokeWidth=1;shadow=0;" parent="WIyWlLk6GJQsqaUBKTNV-1" vertex="1">
          <mxGeometry x="79.22" y="-30" width="279.06" height="60" as="geometry" />
        </mxCell>
        <mxCell id="WIyWlLk6GJQsqaUBKTNV-5" value="No" style="edgeStyle=orthogonalEdgeStyle;rounded=0;html=1;jettySize=auto;orthogonalLoop=1;fontSize=11;endArrow=block;endFill=0;endSize=8;strokeWidth=1;shadow=0;labelBackgroundColor=none;" parent="WIyWlLk6GJQsqaUBKTNV-1" source="WIyWlLk6GJQsqaUBKTNV-6" target="WIyWlLk6GJQsqaUBKTNV-7" edge="1">
          <mxGeometry y="10" relative="1" as="geometry">
            <mxPoint as="offset" />
          </mxGeometry>
        </mxCell>
        <mxCell id="WIyWlLk6GJQsqaUBKTNV-6" value="&lt;div style=&quot;font-size: 15px ; line-height: 20px&quot;&gt;centrality&amp;lt;0 或 centrality&amp;gt;90&lt;/div&gt;" style="rhombus;whiteSpace=wrap;html=1;shadow=0;fontFamily=Helvetica;fontSize=12;align=center;strokeWidth=1;spacing=6;spacingTop=-4;" parent="WIyWlLk6GJQsqaUBKTNV-1" vertex="1">
          <mxGeometry x="93.75" y="270" width="250" height="80" as="geometry" />
        </mxCell>
        <mxCell id="WIyWlLk6GJQsqaUBKTNV-7" value="Plug in lamp" style="rounded=1;whiteSpace=wrap;html=1;fontSize=12;glass=0;strokeWidth=1;shadow=0;" parent="WIyWlLk6GJQsqaUBKTNV-1" vertex="1">
          <mxGeometry x="490" y="380" width="120" height="40" as="geometry" />
        </mxCell>
        <mxCell id="2dPnj1C3fmJmU-PuBL8V-3" style="edgeStyle=orthogonalEdgeStyle;rounded=0;orthogonalLoop=1;jettySize=auto;html=1;exitX=0.5;exitY=1;exitDx=0;exitDy=0;entryX=0.5;entryY=0;entryDx=0;entryDy=0;" edge="1" parent="WIyWlLk6GJQsqaUBKTNV-1" source="2dPnj1C3fmJmU-PuBL8V-4" target="WIyWlLk6GJQsqaUBKTNV-6">
          <mxGeometry relative="1" as="geometry">
            <mxPoint x="158.75" y="370.0000000000001" as="sourcePoint" />
          </mxGeometry>
        </mxCell>
        <mxCell id="2dPnj1C3fmJmU-PuBL8V-5" value="" style="edgeStyle=orthogonalEdgeStyle;rounded=0;orthogonalLoop=1;jettySize=auto;html=1;" edge="1" parent="WIyWlLk6GJQsqaUBKTNV-1" source="2dPnj1C3fmJmU-PuBL8V-2" target="2dPnj1C3fmJmU-PuBL8V-4">
          <mxGeometry relative="1" as="geometry" />
        </mxCell>
        <mxCell id="2dPnj1C3fmJmU-PuBL8V-2" value="pVtxZ Cut" style="rhombus;whiteSpace=wrap;html=1;" vertex="1" parent="WIyWlLk6GJQsqaUBKTNV-1">
          <mxGeometry x="135" y="60" width="165" height="60" as="geometry" />
        </mxCell>
        <mxCell id="2dPnj1C3fmJmU-PuBL8V-4" value="初始化fMultSelection&lt;br&gt;centV0M centCL1&lt;br&gt;sCentrEstimator选择中心度探测器&lt;br&gt;(CL0、CL1、V0C、V0A、TRK，默认V0M)" style="whiteSpace=wrap;html=1;" vertex="1" parent="WIyWlLk6GJQsqaUBKTNV-1">
          <mxGeometry x="67.5" y="160" width="300" height="80" as="geometry" />
        </mxCell>
        <mxCell id="2dPnj1C3fmJmU-PuBL8V-6" value="ntracks = fAOD-&amp;gt;GetNumberOfTracks();" style="rounded=0;whiteSpace=wrap;html=1;labelBackgroundColor=none;fontFamily=Helvetica;fontColor=#000000;" vertex="1" parent="WIyWlLk6GJQsqaUBKTNV-1">
          <mxGeometry x="93.75" y="390" width="250" height="60" as="geometry" />
        </mxCell>
        <mxCell id="2dPnj1C3fmJmU-PuBL8V-9" value="" style="endArrow=classic;html=1;rounded=0;fontFamily=Helvetica;fontColor=#000000;exitX=0.5;exitY=1;exitDx=0;exitDy=0;entryX=0.5;entryY=0;entryDx=0;entryDy=0;" edge="1" parent="WIyWlLk6GJQsqaUBKTNV-1" source="WIyWlLk6GJQsqaUBKTNV-6" target="2dPnj1C3fmJmU-PuBL8V-6">
          <mxGeometry width="50" height="50" relative="1" as="geometry">
            <mxPoint x="160" y="510" as="sourcePoint" />
            <mxPoint x="210" y="460" as="targetPoint" />
          </mxGeometry>
        </mxCell>
        <mxCell id="2dPnj1C3fmJmU-PuBL8V-13" value="" style="edgeStyle=orthogonalEdgeStyle;rounded=0;orthogonalLoop=1;jettySize=auto;html=1;fontFamily=Helvetica;fontColor=#000000;" edge="1" parent="WIyWlLk6GJQsqaUBKTNV-1" source="2dPnj1C3fmJmU-PuBL8V-10" target="2dPnj1C3fmJmU-PuBL8V-12">
          <mxGeometry relative="1" as="geometry" />
        </mxCell>
        <mxCell id="2dPnj1C3fmJmU-PuBL8V-10" value="&lt;div style=&quot;font-size: 15px ; line-height: 20px&quot;&gt;&lt;span style=&quot;font-size: 12px&quot;&gt;ntracks&amp;lt;4&lt;/span&gt;&lt;br&gt;&lt;/div&gt;" style="rhombus;whiteSpace=wrap;html=1;shadow=0;fontFamily=Helvetica;fontSize=12;align=center;strokeWidth=1;spacing=6;spacingTop=-4;" vertex="1" parent="WIyWlLk6GJQsqaUBKTNV-1">
          <mxGeometry x="93.75" y="500" width="250" height="80" as="geometry" />
        </mxCell>
        <mxCell id="2dPnj1C3fmJmU-PuBL8V-11" value="" style="endArrow=classic;html=1;rounded=0;fontFamily=Helvetica;fontColor=#000000;" edge="1" parent="WIyWlLk6GJQsqaUBKTNV-1" target="2dPnj1C3fmJmU-PuBL8V-10">
          <mxGeometry width="50" height="50" relative="1" as="geometry">
            <mxPoint x="219" y="450" as="sourcePoint" />
            <mxPoint x="330" y="510" as="targetPoint" />
          </mxGeometry>
        </mxCell>
        <mxCell id="2dPnj1C3fmJmU-PuBL8V-15" value="" style="edgeStyle=orthogonalEdgeStyle;rounded=0;orthogonalLoop=1;jettySize=auto;html=1;fontFamily=Helvetica;fontColor=#000000;" edge="1" parent="WIyWlLk6GJQsqaUBKTNV-1" source="2dPnj1C3fmJmU-PuBL8V-12" target="2dPnj1C3fmJmU-PuBL8V-14">
          <mxGeometry relative="1" as="geometry" />
        </mxCell>
        <mxCell id="2dPnj1C3fmJmU-PuBL8V-12" value="&lt;div&gt;&lt;span&gt;Int_t runNumber = fAOD-&amp;gt;GetRunNumber()&lt;/span&gt;&lt;/div&gt;" style="whiteSpace=wrap;html=1;shadow=0;strokeWidth=1;spacing=6;spacingTop=-4;" vertex="1" parent="WIyWlLk6GJQsqaUBKTNV-1">
          <mxGeometry x="70.31" y="630" width="296.87" height="40" as="geometry" />
        </mxCell>
        <mxCell id="2dPnj1C3fmJmU-PuBL8V-14" value="" style="whiteSpace=wrap;html=1;shadow=0;strokeWidth=1;spacing=6;spacingTop=-4;" vertex="1" parent="WIyWlLk6GJQsqaUBKTNV-1">
          <mxGeometry x="170" y="830" width="120" height="50" as="geometry" />
        </mxCell>
      </root>
    </mxGraphModel>
  </diagram>
</mxfile>
